<svg width="16" height="16" viewBox="0 0 16 16" fill="none" xmlns="http://www.w3.org/2000/svg">
<path fill-rule="evenodd" clip-rule="evenodd" d="M10.293 1C10.5581 1.00008 10.8125 1.10551 11 1.29297L14.707 5C14.8945 5.18751 15 5.4419 15 5.70703V10.293C15 10.5581 14.8945 10.8125 14.707 11L11 14.707C10.8125 14.8945 10.5581 14.9999 10.293 15H5.70703C5.4419 15 5.18751 14.8945 5 14.707L1.29297 11C1.10545 10.8125 1.00002 10.5582 1 10.293V5.70703C1.00002 5.44184 1.10545 5.18752 1.29297 5L5 1.29297C5.18751 1.10553 5.4419 1.00002 5.70703 1H10.293Z" fill="#FFC9C2"/>
<path d="M8.70703 8L11.3535 5.35352L10.6465 4.64648L8 7.29297L5.35352 4.64648L4.64648 5.35352L7.29297 8L4.64648 10.6465L5.35352 11.3535L8 8.70703L10.6465 11.3535L11.3535 10.6465L8.70703 8Z" fill="#A71627"/>
</svg>
