<svg width="16" height="16" viewBox="0 0 16 16" fill="none" xmlns="http://www.w3.org/2000/svg">
<path fill-rule="evenodd" clip-rule="evenodd" d="M8 15C11.866 15 15 11.866 15 8C15 4.13401 11.866 1 8 1C4.13401 1 1 4.13401 1 8C1 11.866 4.13401 15 8 15Z" fill="#BFDBFF"/>
<path d="M9 5C9 5.55228 8.55228 6 8 6C7.44772 6 7 5.55228 7 5C7 4.44772 7.44772 4 8 4C8.55228 4 9 4.44772 9 5Z" fill="#1750BA"/>
<path fill-rule="evenodd" clip-rule="evenodd" d="M6.5 7H8.5V11H10V12H6V11H7.5V8H6.5V7Z" fill="#1750BA"/>
</svg>
